{
	"patcher" : 	{
		"fileversion" : 1,
		"appversion" : 		{
			"major" : 8,
			"minor" : 5,
			"revision" : 6,
			"architecture" : "x64",
			"modernui" : 1
		}
,
		"classnamespace" : "box",
		"rect" : [ 533.0, 91.0, 1344.0, 869.0 ],
		"bglocked" : 0,
		"openinpresentation" : 0,
		"default_fontsize" : 12.0,
		"default_fontface" : 0,
		"default_fontname" : "Arial",
		"gridonopen" : 1,
		"gridsize" : [ 15.0, 15.0 ],
		"gridsnaponopen" : 1,
		"objectsnaponopen" : 1,
		"statusbarvisible" : 2,
		"toolbarvisible" : 1,
		"lefttoolbarpinned" : 0,
		"toptoolbarpinned" : 0,
		"righttoolbarpinned" : 0,
		"bottomtoolbarpinned" : 0,
		"toolbars_unpinned_last_save" : 0,
		"tallnewobj" : 0,
		"boxanimatetime" : 200,
		"enablehscroll" : 1,
		"enablevscroll" : 1,
		"devicewidth" : 0.0,
		"description" : "",
		"digest" : "",
		"tags" : "",
		"style" : "",
		"subpatcher_template" : "",
		"assistshowspatchername" : 0,
		"boxes" : [ 			{
				"box" : 				{
					"id" : "obj-53",
					"maxclass" : "button",
					"numinlets" : 1,
					"numoutlets" : 1,
					"outlettype" : [ "bang" ],
					"parameter_enable" : 0,
					"patching_rect" : [ 737.0, 43.0, 24.0, 24.0 ]
				}

			}
, 			{
				"box" : 				{
					"id" : "obj-1",
					"maxclass" : "newobj",
					"numinlets" : 1,
					"numoutlets" : 1,
					"outlettype" : [ "" ],
					"patching_rect" : [ 684.0, 146.0, 94.0, 22.0 ],
					"text" : "prepend timesig"
				}

			}
, 			{
				"box" : 				{
					"id" : "obj-52",
					"maxclass" : "newobj",
					"numinlets" : 1,
					"numoutlets" : 1,
					"outlettype" : [ "" ],
					"patching_rect" : [ 545.0, 135.0, 89.0, 22.0 ],
					"text" : "prepend tempo"
				}

			}
, 			{
				"box" : 				{
					"id" : "obj-49",
					"linecount" : 2,
					"maxclass" : "comment",
					"numinlets" : 1,
					"numoutlets" : 0,
					"patching_rect" : [ 868.0, 96.0, 150.0, 33.0 ],
					"text" : "ADD SUPPORT FOR MUSICAL TIMINGS"
				}

			}
, 			{
				"box" : 				{
					"id" : "obj-37",
					"maxclass" : "newobj",
					"numinlets" : 2,
					"numoutlets" : 1,
					"outlettype" : [ "bang" ],
					"patching_rect" : [ 325.0, 17.0, 55.0, 22.0 ],
					"text" : "del 1000"
				}

			}
, 			{
				"box" : 				{
					"id" : "obj-36",
					"maxclass" : "newobj",
					"numinlets" : 0,
					"numoutlets" : 1,
					"outlettype" : [ "" ],
					"patching_rect" : [ 485.0, 40.0, 49.0, 22.0 ],
					"text" : "r reload"
				}

			}
, 			{
				"box" : 				{
					"id" : "obj-34",
					"maxclass" : "newobj",
					"numinlets" : 1,
					"numoutlets" : 0,
					"patching_rect" : [ 357.0, 762.0, 51.0, 22.0 ],
					"text" : "s reload"
				}

			}
, 			{
				"box" : 				{
					"id" : "obj-32",
					"maxclass" : "preset",
					"numinlets" : 1,
					"numoutlets" : 5,
					"outlettype" : [ "preset", "int", "preset", "int", "" ],
					"patching_rect" : [ 347.0, 707.0, 100.0, 40.0 ],
					"pattrstorage" : "storage"
				}

			}
, 			{
				"box" : 				{
					"id" : "obj-28",
					"maxclass" : "newobj",
					"numinlets" : 1,
					"numoutlets" : 1,
					"outlettype" : [ "" ],
					"patching_rect" : [ 523.0, 747.0, 116.0, 22.0 ],
					"saved_object_attributes" : 					{
						"client_rect" : [ 1071, 252, 1680, 568 ],
						"parameter_enable" : 0,
						"parameter_mappable" : 0,
						"storage_rect" : [ 780, 524, 1380, 824 ]
					}
,
					"text" : "pattrstorage storage",
					"varname" : "storage"
				}

			}
, 			{
				"box" : 				{
					"id" : "obj-26",
					"maxclass" : "newobj",
					"numinlets" : 1,
					"numoutlets" : 3,
					"outlettype" : [ "", "", "" ],
					"patching_rect" : [ 643.0, 770.0, 40.0, 22.0 ],
					"restore" : [ 						{
							"data" : 							{
								"enumArrays" : [ [ 1, 0, 0, 0, 0, 0, 0, 0, 0, 0, 0, 0, 0, 0, 0, 0, 0, 0, 0, 0 ], [ "3", 2, 2, "2", "2", "2", "2", "2", "2", "2" ], [ "meter", "NONE", "NONE", "attenuation", "attenuation", "attenuation", "attenuation", "attenuation", "attenuation", "attenuation" ] ],
								"enumMats" : [ [ [ 0, "1", "2", 3, 4, 5, 6, 7, 8, 9, 10 ], [ 0, 1, 2, 3, 4, 5, 6, 7, 8, 9, 10 ], [ 0, 1, 2, 3, 4, 5, 6, 7, 8, 9, 10 ], [ 0, 1, 2, 3, 4, 5, 6, 7, 8, 9, 10 ], [ 0, 1, 2, 3, 4, 5, 6, 7, 8, 9, 10 ], [ 0, 1, 2, 3, 4, 5, 6, 7, 8, 9, 10 ], [ 0, 1, 2, 3, 4, 5, 6, 7, 8, 9, 10 ], [ 0, 1, 2, 3, 4, 5, 6, 7, 8, 9, 10 ], [ 0, 1, 2, 3, 4, 5, 6, 7, 8, 9, 10 ], [ 0, 1, 2, 3, 4, 5, 6, 7, 8, 9, 10 ], [ 0, 1, 2, 3, 4, 5, 6, 7, 8, 9, 10 ], [ 0, 1, 2, 3, 4, 5, 6, 7, 8, 9, 10 ], [ 0, 1, 2, 3, 4, 5, 6, 7, 8, 9, 10 ], [ 0, 1, 2, 3, 4, 5, 6, 7, 8, 9, 10 ], [ 0, 1, 2, 3, 4, 5, 6, 7, 8, 9, 10 ], [ 0, 1, 2, 3, 4, 5, 6, 7, 8, 9, 10 ], [ 0, 1, 2, 3, 4, 5, 6, 7, 8, 9, 10 ], [ 0, 1, 2, 3, 4, 5, 6, 7, 8, 9, 10 ], [ 0, 1, 2, 3, 4, 5, 6, 7, 8, 9, 10 ], [ 0, 1, 2, 3, 4, 5, 6, 7, 8, 9, 10 ] ], [ [ "3 4", "4 4", "7 8", "param", "param", "param", "param", "param", "param", "param" ], [ "param", "param", "param", "param", "param", "param", "param", "param", "param", "param" ], [ "param", "param", "param", "param", "param", "param", "param", "param", "param", "param" ], [ "param", "param", "param", "param", "param", "param", "param", "param", "param", "param" ], [ "param", "param", "param", "param", "param", "param", "param", "param", "param", "param" ], [ "param", "param", "param", "param", "param", "param", "param", "param", "param", "param" ], [ "param", "param", "param", "param", "param", "param", "param", "param", "param", "param" ], [ "param", "param", "param", "param", "param", "param", "param", "param", "param", "param" ], [ "param", "param", "param", "param", "param", "param", "param", "param", "param", "param" ], [ "param", "param", "param", "param", "param", "param", "param", "param", "param", "param" ], [ "param", "param", "param", "param", "param", "param", "param", "param", "param", "param" ], [ "param", "param", "param", "param", "param", "param", "param", "param", "param", "param" ], [ "param", "param", "param", "param", "param", "param", "param", "param", "param", "param" ], [ "param", "param", "param", "param", "param", "param", "param", "param", "param", "param" ], [ "param", "param", "param", "param", "param", "param", "param", "param", "param", "param" ], [ "param", "param", "param", "param", "param", "param", "param", "param", "param", "param" ], [ "param", "param", "param", "param", "param", "param", "param", "param", "param", "param" ], [ "param", "param", "param", "param", "param", "param", "param", "param", "param", "param" ], [ "param", "param", "param", "param", "param", "param", "param", "param", "param", "param" ], [ "param", "param", "param", "param", "param", "param", "param", "param", "param", "param" ] ] ],
								"modArrays" : [ [ 1, 1, 0, 0, 0, 0, 0, 0, 0, 0, 0, 0, 0, 0, 0, 0, 0, 0, 0, 0 ], [ "Sine", "Sine", "Sine", "Sine", "Sine", "Sine", "Sine", "Sine", "Sine", "Sine", "Sine", "Sine", "Sine", "Sine", "Sine", "Sine", "Sine", "Sine", "Sine", "Sine" ], [ "meter", "eventfulness", "NONE", "NONE", "NONE", "NONE", "NONE", "NONE", "NONE", "NONE", "NONE", "NONE", "NONE", "NONE", "NONE", "NONE", "NONE", "NONE", "NONE", "NONE" ], [ "0.1hz", "1hz", "1", "1", "1", "1", "1", "1", "1", "1", "1", "1", "1", "1", "1", "1", "1", "1", "1", "1" ], [ "0.5", "1", "0", "0", "0", "0", "0", "0", "0", "0", "0", "0", "0", "0", "0", "0", "0", "0", "0", "0" ], [ "2.5", "0", "1", "1", "1", "1", "1", "1", "1", "1", "1", "1", "1", "1", "1", "1", "1", "1", "1", "1" ], [ "0", "0", "0", "0", "0", "0", "0", "0", "0", "0", "0", "0", "0", "0", "0", "0", "0", "0", "0", "0" ] ]
							}

						}
 ],
					"saved_object_attributes" : 					{
						"parameter_enable" : 0,
						"parameter_mappable" : 0
					}
,
					"text" : "pattr",
					"varname" : "u560003760"
				}

			}
, 			{
				"box" : 				{
					"data" : 					{
						"data" : 						{
							"enumArrays" : [ [ 1, 0, 0, 0, 0, 0, 0, 0, 0, 0, 0, 0, 0, 0, 0, 0, 0, 0, 0, 0 ], [ "3", 2, 2, "2", "2", "2", "2", "2", "2", "2" ], [ "meter", "NONE", "NONE", "attenuation", "attenuation", "attenuation", "attenuation", "attenuation", "attenuation", "attenuation" ] ],
							"enumMats" : [ [ [ 0, "1", "2", 3, 4, 5, 6, 7, 8, 9, 10 ], [ 0, 1, 2, 3, 4, 5, 6, 7, 8, 9, 10 ], [ 0, 1, 2, 3, 4, 5, 6, 7, 8, 9, 10 ], [ 0, 1, 2, 3, 4, 5, 6, 7, 8, 9, 10 ], [ 0, 1, 2, 3, 4, 5, 6, 7, 8, 9, 10 ], [ 0, 1, 2, 3, 4, 5, 6, 7, 8, 9, 10 ], [ 0, 1, 2, 3, 4, 5, 6, 7, 8, 9, 10 ], [ 0, 1, 2, 3, 4, 5, 6, 7, 8, 9, 10 ], [ 0, 1, 2, 3, 4, 5, 6, 7, 8, 9, 10 ], [ 0, 1, 2, 3, 4, 5, 6, 7, 8, 9, 10 ], [ 0, 1, 2, 3, 4, 5, 6, 7, 8, 9, 10 ], [ 0, 1, 2, 3, 4, 5, 6, 7, 8, 9, 10 ], [ 0, 1, 2, 3, 4, 5, 6, 7, 8, 9, 10 ], [ 0, 1, 2, 3, 4, 5, 6, 7, 8, 9, 10 ], [ 0, 1, 2, 3, 4, 5, 6, 7, 8, 9, 10 ], [ 0, 1, 2, 3, 4, 5, 6, 7, 8, 9, 10 ], [ 0, 1, 2, 3, 4, 5, 6, 7, 8, 9, 10 ], [ 0, 1, 2, 3, 4, 5, 6, 7, 8, 9, 10 ], [ 0, 1, 2, 3, 4, 5, 6, 7, 8, 9, 10 ], [ 0, 1, 2, 3, 4, 5, 6, 7, 8, 9, 10 ] ], [ [ "3 4", "4 4", "7 8", "param", "param", "param", "param", "param", "param", "param" ], [ "param", "param", "param", "param", "param", "param", "param", "param", "param", "param" ], [ "param", "param", "param", "param", "param", "param", "param", "param", "param", "param" ], [ "param", "param", "param", "param", "param", "param", "param", "param", "param", "param" ], [ "param", "param", "param", "param", "param", "param", "param", "param", "param", "param" ], [ "param", "param", "param", "param", "param", "param", "param", "param", "param", "param" ], [ "param", "param", "param", "param", "param", "param", "param", "param", "param", "param" ], [ "param", "param", "param", "param", "param", "param", "param", "param", "param", "param" ], [ "param", "param", "param", "param", "param", "param", "param", "param", "param", "param" ], [ "param", "param", "param", "param", "param", "param", "param", "param", "param", "param" ], [ "param", "param", "param", "param", "param", "param", "param", "param", "param", "param" ], [ "param", "param", "param", "param", "param", "param", "param", "param", "param", "param" ], [ "param", "param", "param", "param", "param", "param", "param", "param", "param", "param" ], [ "param", "param", "param", "param", "param", "param", "param", "param", "param", "param" ], [ "param", "param", "param", "param", "param", "param", "param", "param", "param", "param" ], [ "param", "param", "param", "param", "param", "param", "param", "param", "param", "param" ], [ "param", "param", "param", "param", "param", "param", "param", "param", "param", "param" ], [ "param", "param", "param", "param", "param", "param", "param", "param", "param", "param" ], [ "param", "param", "param", "param", "param", "param", "param", "param", "param", "param" ], [ "param", "param", "param", "param", "param", "param", "param", "param", "param", "param" ] ] ],
							"modArrays" : [ [ 1, 1, 0, 0, 0, 0, 0, 0, 0, 0, 0, 0, 0, 0, 0, 0, 0, 0, 0, 0 ], [ "Sine", "Sine", "Sine", "Sine", "Sine", "Sine", "Sine", "Sine", "Sine", "Sine", "Sine", "Sine", "Sine", "Sine", "Sine", "Sine", "Sine", "Sine", "Sine", "Sine" ], [ "meter", "eventfulness", "NONE", "NONE", "NONE", "NONE", "NONE", "NONE", "NONE", "NONE", "NONE", "NONE", "NONE", "NONE", "NONE", "NONE", "NONE", "NONE", "NONE", "NONE" ], [ "0.1hz", "1hz", "1", "1", "1", "1", "1", "1", "1", "1", "1", "1", "1", "1", "1", "1", "1", "1", "1", "1" ], [ "0.5", "1", "0", "0", "0", "0", "0", "0", "0", "0", "0", "0", "0", "0", "0", "0", "0", "0", "0", "0" ], [ "2.5", "0", "1", "1", "1", "1", "1", "1", "1", "1", "1", "1", "1", "1", "1", "1", "1", "1", "1", "1" ], [ "0", "0", "0", "0", "0", "0", "0", "0", "0", "0", "0", "0", "0", "0", "0", "0", "0", "0", "0", "0" ] ]
						}

					}
,
					"id" : "obj-25",
					"maxclass" : "newobj",
					"numinlets" : 2,
					"numoutlets" : 4,
					"outlettype" : [ "dictionary", "", "", "" ],
					"patching_rect" : [ 773.0, 808.0, 166.0, 22.0 ],
					"saved_object_attributes" : 					{
						"embed" : 1,
						"parameter_enable" : 0,
						"parameter_mappable" : 0
					}
,
					"text" : "dict localStorage2 @embed 1",
					"varname" : "dict"
				}

			}
, 			{
				"box" : 				{
					"id" : "obj-13",
					"maxclass" : "newobj",
					"numinlets" : 1,
					"numoutlets" : 0,
					"patching_rect" : [ 971.0, 590.0, 32.0, 22.0 ],
					"text" : "print"
				}

			}
, 			{
				"box" : 				{
					"id" : "obj-47",
					"maxclass" : "newobj",
					"numinlets" : 2,
					"numoutlets" : 9,
					"outlettype" : [ "int", "int", "float", "float", "float", "", "int", "float", "" ],
					"patching_rect" : [ 744.815790414810181, 107.0, 103.0, 22.0 ],
					"text" : "transport"
				}

			}
, 			{
				"box" : 				{
					"id" : "obj-43",
					"linecount" : 4,
					"maxclass" : "comment",
					"numinlets" : 1,
					"numoutlets" : 0,
					"patching_rect" : [ 1045.5, 528.0, 150.0, 60.0 ],
					"text" : "range should be user controllable - adds to user defined center point.  Remove amp."
				}

			}
, 			{
				"box" : 				{
					"id" : "obj-40",
					"maxclass" : "newobj",
					"numinlets" : 1,
					"numoutlets" : 1,
					"outlettype" : [ "bang" ],
					"patching_rect" : [ 1041.0, 687.0, 22.0, 22.0 ],
					"text" : "t b"
				}

			}
, 			{
				"box" : 				{
					"id" : "obj-38",
					"maxclass" : "dict.view",
					"numinlets" : 1,
					"numoutlets" : 0,
					"patching_rect" : [ 1009.631580829620361, 742.0, 231.0, 134.0 ]
				}

			}
, 			{
				"box" : 				{
					"bubble" : 1,
					"id" : "obj-30",
					"linecount" : 4,
					"maxclass" : "comment",
					"numinlets" : 1,
					"numoutlets" : 0,
					"patching_rect" : [ 137.5, 440.0, 246.0, 64.0 ],
					"text" : "this param is sent in its already enumerated form, so it will first be turned into   a number halfway between the enumeration boundaries"
				}

			}
, 			{
				"box" : 				{
					"id" : "obj-22",
					"maxclass" : "message",
					"numinlets" : 2,
					"numoutlets" : 1,
					"outlettype" : [ "" ],
					"patching_rect" : [ 22.0, 444.0, 105.0, 22.0 ],
					"text" : "param meter \"3 4\""
				}

			}
, 			{
				"box" : 				{
					"id" : "obj-41",
					"maxclass" : "message",
					"numinlets" : 2,
					"numoutlets" : 1,
					"outlettype" : [ "" ],
					"patching_rect" : [ 949.0, 647.0, 156.0, 22.0 ],
					"text" : "attenuation 200"
				}

			}
, 			{
				"box" : 				{
					"id" : "obj-39",
					"maxclass" : "message",
					"numinlets" : 2,
					"numoutlets" : 1,
					"outlettype" : [ "" ],
					"patching_rect" : [ 824.0, 647.0, 101.0, 22.0 ],
					"text" : "scale pentatonic"
				}

			}
, 			{
				"box" : 				{
					"id" : "obj-35",
					"maxclass" : "message",
					"numinlets" : 2,
					"numoutlets" : 1,
					"outlettype" : [ "" ],
					"patching_rect" : [ 662.0, 647.0, 157.0, 22.0 ],
					"text" : "harmoniclarity 33.124751"
				}

			}
, 			{
				"box" : 				{
					"id" : "obj-33",
					"maxclass" : "message",
					"numinlets" : 2,
					"numoutlets" : 1,
					"outlettype" : [ "" ],
					"patching_rect" : [ 569.0, 647.0, 87.0, 22.0 ],
					"text" : "meter 4 4"
				}

			}
, 			{
				"box" : 				{
					"id" : "obj-31",
					"linecount" : 2,
					"maxclass" : "message",
					"numinlets" : 2,
					"numoutlets" : 1,
					"outlettype" : [ "" ],
					"patching_rect" : [ 485.0, 647.0, 80.0, 35.0 ],
					"text" : "stream 0.207125"
				}

			}
, 			{
				"box" : 				{
					"id" : "obj-29",
					"maxclass" : "message",
					"numinlets" : 2,
					"numoutlets" : 1,
					"outlettype" : [ "" ],
					"patching_rect" : [ 347.0, 647.0, 133.0, 22.0 ],
					"text" : "metriclarity 20"
				}

			}
, 			{
				"box" : 				{
					"id" : "obj-27",
					"maxclass" : "newobj",
					"numinlets" : 9,
					"numoutlets" : 9,
					"outlettype" : [ "", "", "", "", "", "", "", "", "" ],
					"patching_rect" : [ 423.5, 588.0, 441.0, 22.0 ],
					"text" : "routepass metriclarity stream meter harmoniclarity scale attenuation saved debug"
				}

			}
, 			{
				"box" : 				{
					"id" : "obj-17",
					"linecount" : 2,
					"maxclass" : "comment",
					"numinlets" : 1,
					"numoutlets" : 0,
					"patching_rect" : [ 518.0, 541.0, 268.0, 33.0 ],
					"text" : "we can only output symbols from jweb, so this turns them into lists"
				}

			}
, 			{
				"box" : 				{
					"id" : "obj-10",
					"maxclass" : "newobj",
					"numinlets" : 1,
					"numoutlets" : 1,
					"outlettype" : [ "" ],
					"patching_rect" : [ 423.5, 552.0, 71.0, 22.0 ],
					"text" : "fromsymbol"
				}

			}
, 			{
				"box" : 				{
					"id" : "obj-19",
					"linecount" : 2,
					"maxclass" : "comment",
					"numinlets" : 1,
					"numoutlets" : 0,
					"patching_rect" : [ 548.52631402015686, 80.0, 150.0, 33.0 ],
					"text" : "see below for why we use separate names..."
				}

			}
, 			{
				"box" : 				{
					"id" : "obj-14",
					"linecount" : 3,
					"maxclass" : "comment",
					"numinlets" : 1,
					"numoutlets" : 0,
					"patching_rect" : [ 796.0, 27.5, 150.0, 47.0 ],
					"text" : "self explanatory.  Warning-will overwrite whatever is saved."
				}

			}
, 			{
				"box" : 				{
					"id" : "obj-11",
					"linecount" : 4,
					"maxclass" : "comment",
					"numinlets" : 1,
					"numoutlets" : 0,
					"patching_rect" : [ 1045.5, 69.0, 152.0, 60.0 ],
					"text" : "You can use the `phase` control to phase offset two LFOs of the same frequency"
				}

			}
, 			{
				"box" : 				{
					"bubble" : 1,
					"id" : "obj-7",
					"linecount" : 3,
					"maxclass" : "comment",
					"numinlets" : 1,
					"numoutlets" : 0,
					"patching_rect" : [ 153.0, 274.0, 197.0, 51.0 ],
					"text" : "This parameter is defined in the enumerators but not the modulators"
				}

			}
, 			{
				"box" : 				{
					"id" : "obj-5",
					"maxclass" : "message",
					"numinlets" : 2,
					"numoutlets" : 1,
					"outlettype" : [ "" ],
					"patching_rect" : [ 59.0, 256.0, 94.0, 22.0 ],
					"text" : "param scale 1.6"
				}

			}
, 			{
				"box" : 				{
					"bubble" : 1,
					"id" : "obj-24",
					"linecount" : 3,
					"maxclass" : "comment",
					"numinlets" : 1,
					"numoutlets" : 0,
					"patching_rect" : [ 133.0, 347.0, 254.0, 51.0 ],
					"text" : "This parameter is not defined by either the Modulators or Enumerators, so it will be passed directly to the output"
				}

			}
, 			{
				"box" : 				{
					"bubble" : 1,
					"id" : "obj-23",
					"linecount" : 4,
					"maxclass" : "comment",
					"numinlets" : 1,
					"numoutlets" : 0,
					"patching_rect" : [ 159.0, 190.0, 197.0, 64.0 ],
					"text" : "This parameter is defined in the modulators, and when sent will act as the low value for that LFO"
				}

			}
, 			{
				"box" : 				{
					"id" : "obj-21",
					"linecount" : 11,
					"maxclass" : "comment",
					"numinlets" : 1,
					"numoutlets" : 0,
					"patching_rect" : [ 45.0, 564.0, 254.0, 154.0 ],
					"text" : "The operation runs\n\nInput > Denumeration > Modulators > Enumerators > Output\n\nA parameter from the input not established by a Modulator will be passed directly to the Enumerators\n\nLikewise, the Enumerators will pass not established parameters"
				}

			}
, 			{
				"box" : 				{
					"id" : "obj-15",
					"maxclass" : "message",
					"numinlets" : 2,
					"numoutlets" : 1,
					"outlettype" : [ "" ],
					"patching_rect" : [ 48.0, 181.0, 121.0, 22.0 ],
					"text" : "param metriclarity 20"
				}

			}
, 			{
				"box" : 				{
					"id" : "obj-8",
					"maxclass" : "message",
					"numinlets" : 2,
					"numoutlets" : 1,
					"outlettype" : [ "" ],
					"patching_rect" : [ 28.0, 331.0, 129.0, 22.0 ],
					"text" : "param attenuation 200"
				}

			}
, 			{
				"box" : 				{
					"id" : "obj-16",
					"maxclass" : "message",
					"numinlets" : 2,
					"numoutlets" : 1,
					"outlettype" : [ "" ],
					"patching_rect" : [ 438.52631402015686, 69.0, 108.0, 22.0 ],
					"text" : "load localStorage2"
				}

			}
, 			{
				"box" : 				{
					"id" : "obj-4",
					"maxclass" : "newobj",
					"numinlets" : 2,
					"numoutlets" : 4,
					"outlettype" : [ "dictionary", "", "", "" ],
					"patching_rect" : [ 1041.0, 711.0, 97.0, 22.0 ],
					"saved_object_attributes" : 					{
						"embed" : 0,
						"parameter_enable" : 0,
						"parameter_mappable" : 0
					}
,
					"text" : "dict localStorage"
				}

			}
, 			{
				"box" : 				{
					"id" : "obj-6",
					"linecount" : 2,
					"maxclass" : "comment",
					"numinlets" : 1,
					"numoutlets" : 0,
					"patching_rect" : [ 504.0, 6.0, 150.0, 33.0 ],
					"text" : "required due to the asynchronous operation"
				}

			}
, 			{
				"box" : 				{
					"id" : "obj-45",
					"linecount" : 8,
					"maxclass" : "comment",
					"numinlets" : 1,
					"numoutlets" : 0,
					"patching_rect" : [ 773.0, 692.0, 150.0, 114.0 ],
					"text" : "Storage for the matrix.  Unfortunately, jsweb dictionary handling isn't great, so we can't use it like a native dict object and need to do this wild hack for usage with pattrstorage"
				}

			}
, 			{
				"box" : 				{
					"id" : "obj-20",
					"maxclass" : "newobj",
					"numinlets" : 1,
					"numoutlets" : 1,
					"outlettype" : [ "bang" ],
					"patching_rect" : [ 217.0, 6.0, 58.0, 22.0 ],
					"text" : "loadbang"
				}

			}
, 			{
				"box" : 				{
					"id" : "obj-12",
					"maxclass" : "message",
					"numinlets" : 2,
					"numoutlets" : 1,
					"outlettype" : [ "" ],
					"patching_rect" : [ 700.894735336303711, 69.0, 104.0, 22.0 ],
					"text" : "save localStorage"
				}

			}
, 			{
				"box" : 				{
					"id" : "obj-18",
					"maxclass" : "message",
					"numinlets" : 2,
					"numoutlets" : 1,
					"outlettype" : [ "" ],
					"patching_rect" : [ 217.0, 69.0, 106.0, 22.0 ],
					"text" : "readfile lfogui.html"
				}

			}
, 			{
				"box" : 				{
					"id" : "obj-2",
					"maxclass" : "jweb",
					"numinlets" : 1,
					"numoutlets" : 1,
					"outlettype" : [ "" ],
					"patching_rect" : [ 402.0, 174.0, 788.631580829620361, 367.0 ],
					"rendermode" : 0,
					"url" : "file://lfogui.html"
				}

			}
 ],
		"lines" : [ 			{
				"patchline" : 				{
					"destination" : [ "obj-2", 0 ],
					"source" : [ "obj-1", 0 ]
				}

			}
, 			{
				"patchline" : 				{
					"destination" : [ "obj-27", 0 ],
					"source" : [ "obj-10", 0 ]
				}

			}
, 			{
				"patchline" : 				{
					"destination" : [ "obj-2", 0 ],
					"source" : [ "obj-12", 0 ]
				}

			}
, 			{
				"patchline" : 				{
					"destination" : [ "obj-2", 0 ],
					"source" : [ "obj-15", 0 ]
				}

			}
, 			{
				"patchline" : 				{
					"destination" : [ "obj-2", 0 ],
					"source" : [ "obj-16", 0 ]
				}

			}
, 			{
				"patchline" : 				{
					"destination" : [ "obj-2", 0 ],
					"source" : [ "obj-18", 0 ]
				}

			}
, 			{
				"patchline" : 				{
					"destination" : [ "obj-10", 0 ],
					"source" : [ "obj-2", 0 ]
				}

			}
, 			{
				"patchline" : 				{
					"destination" : [ "obj-18", 0 ],
					"order" : 1,
					"source" : [ "obj-20", 0 ]
				}

			}
, 			{
				"patchline" : 				{
					"destination" : [ "obj-37", 0 ],
					"order" : 0,
					"source" : [ "obj-20", 0 ]
				}

			}
, 			{
				"patchline" : 				{
					"destination" : [ "obj-2", 0 ],
					"source" : [ "obj-22", 0 ]
				}

			}
, 			{
				"patchline" : 				{
					"destination" : [ "obj-25", 0 ],
					"source" : [ "obj-26", 1 ]
				}

			}
, 			{
				"patchline" : 				{
					"destination" : [ "obj-13", 0 ],
					"source" : [ "obj-27", 7 ]
				}

			}
, 			{
				"patchline" : 				{
					"destination" : [ "obj-29", 1 ],
					"source" : [ "obj-27", 0 ]
				}

			}
, 			{
				"patchline" : 				{
					"destination" : [ "obj-31", 1 ],
					"source" : [ "obj-27", 1 ]
				}

			}
, 			{
				"patchline" : 				{
					"destination" : [ "obj-33", 1 ],
					"source" : [ "obj-27", 2 ]
				}

			}
, 			{
				"patchline" : 				{
					"destination" : [ "obj-35", 1 ],
					"source" : [ "obj-27", 3 ]
				}

			}
, 			{
				"patchline" : 				{
					"destination" : [ "obj-39", 1 ],
					"source" : [ "obj-27", 4 ]
				}

			}
, 			{
				"patchline" : 				{
					"destination" : [ "obj-40", 0 ],
					"source" : [ "obj-27", 6 ]
				}

			}
, 			{
				"patchline" : 				{
					"destination" : [ "obj-41", 1 ],
					"source" : [ "obj-27", 5 ]
				}

			}
, 			{
				"patchline" : 				{
					"destination" : [ "obj-34", 0 ],
					"source" : [ "obj-32", 1 ]
				}

			}
, 			{
				"patchline" : 				{
					"destination" : [ "obj-16", 0 ],
					"source" : [ "obj-36", 0 ]
				}

			}
, 			{
				"patchline" : 				{
					"destination" : [ "obj-15", 0 ],
					"order" : 2,
					"source" : [ "obj-37", 0 ]
				}

			}
, 			{
				"patchline" : 				{
					"destination" : [ "obj-16", 0 ],
					"order" : 1,
					"source" : [ "obj-37", 0 ]
				}

			}
, 			{
				"patchline" : 				{
					"destination" : [ "obj-47", 0 ],
					"order" : 0,
					"source" : [ "obj-37", 0 ]
				}

			}
, 			{
				"patchline" : 				{
					"destination" : [ "obj-25", 0 ],
					"order" : 1,
					"source" : [ "obj-4", 0 ]
				}

			}
, 			{
				"patchline" : 				{
					"destination" : [ "obj-38", 0 ],
					"order" : 0,
					"source" : [ "obj-4", 0 ]
				}

			}
, 			{
				"patchline" : 				{
					"destination" : [ "obj-4", 0 ],
					"source" : [ "obj-40", 0 ]
				}

			}
, 			{
				"patchline" : 				{
					"destination" : [ "obj-1", 0 ],
					"source" : [ "obj-47", 5 ]
				}

			}
, 			{
				"patchline" : 				{
					"destination" : [ "obj-52", 0 ],
					"source" : [ "obj-47", 4 ]
				}

			}
, 			{
				"patchline" : 				{
					"destination" : [ "obj-2", 0 ],
					"source" : [ "obj-5", 0 ]
				}

			}
, 			{
				"patchline" : 				{
					"destination" : [ "obj-2", 0 ],
					"source" : [ "obj-52", 0 ]
				}

			}
, 			{
				"patchline" : 				{
					"destination" : [ "obj-47", 0 ],
					"source" : [ "obj-53", 0 ]
				}

			}
, 			{
				"patchline" : 				{
					"destination" : [ "obj-2", 0 ],
					"source" : [ "obj-8", 0 ]
				}

			}
 ],
		"dependency_cache" : [  ],
		"autosave" : 0
	}

}
