{
	"patcher" : 	{
		"fileversion" : 1,
		"appversion" : 		{
			"major" : 8,
			"minor" : 5,
			"revision" : 6,
			"architecture" : "x64",
			"modernui" : 1
		}
,
		"classnamespace" : "box",
		"rect" : [ 495.0, 87.0, 815.0, 715.0 ],
		"bglocked" : 0,
		"openinpresentation" : 0,
		"default_fontsize" : 12.0,
		"default_fontface" : 0,
		"default_fontname" : "Arial",
		"gridonopen" : 1,
		"gridsize" : [ 15.0, 15.0 ],
		"gridsnaponopen" : 1,
		"objectsnaponopen" : 1,
		"statusbarvisible" : 2,
		"toolbarvisible" : 1,
		"lefttoolbarpinned" : 0,
		"toptoolbarpinned" : 0,
		"righttoolbarpinned" : 0,
		"bottomtoolbarpinned" : 0,
		"toolbars_unpinned_last_save" : 0,
		"tallnewobj" : 0,
		"boxanimatetime" : 200,
		"enablehscroll" : 1,
		"enablevscroll" : 1,
		"devicewidth" : 0.0,
		"description" : "",
		"digest" : "",
		"tags" : "",
		"style" : "",
		"subpatcher_template" : "",
		"assistshowspatchername" : 0,
		"boxes" : [ 			{
				"box" : 				{
					"id" : "obj-16",
					"maxclass" : "message",
					"numinlets" : 2,
					"numoutlets" : 1,
					"outlettype" : [ "" ],
					"patching_rect" : [ 438.52631402015686, 69.0, 101.0, 22.0 ],
					"text" : "load localStorage"
				}

			}
, 			{
				"box" : 				{
					"data" : 					{
						"data" : 						{
							"enumArrays" : [ [ 1, 1, 1, 0, 0, 0, 0, 0, 0, 0, 0, 0, 0, 0, 0, 0, 0, 0, 0, 0 ], [ 2, 2, "4", "2", "2", "2", "2", "2", "2", "2" ] ],
							"enumMats" : [ [ [ 0, "4", 2, 3, 4, 5, 6, 7, 8, 9, 10 ], [ "-4", 1, 2, 3, 4, 5, 6, 7, 8, 9, 10 ], [ 0, "-1", "5", 3, 4, 5, 6, 7, 8, 9, 10 ], [ 0, 1, 2, 3, 4, 5, 6, 7, 8, 9, 10 ], [ 0, 1, 2, 3, 4, 5, 6, 7, 8, 9, 10 ], [ 0, 1, 2, 3, 4, 5, 6, 7, 8, 9, 10 ], [ 0, 1, 2, 3, 4, 5, 6, 7, 8, 9, 10 ], [ 0, 1, 2, 3, 4, 5, 6, 7, 8, 9, 10 ], [ 0, 1, 2, 3, 4, 5, 6, 7, 8, 9, 10 ], [ 0, 1, 2, 3, 4, 5, 6, 7, 8, 9, 10 ], [ 0, 1, 2, 3, 4, 5, 6, 7, 8, 9, 10 ], [ 0, 1, 2, 3, 4, 5, 6, 7, 8, 9, 10 ], [ 0, 1, 2, 3, 4, 5, 6, 7, 8, 9, 10 ], [ 0, 1, 2, 3, 4, 5, 6, 7, 8, 9, 10 ], [ 0, 1, 2, 3, 4, 5, 6, 7, 8, 9, 10 ], [ 0, 1, 2, 3, 4, 5, 6, 7, 8, 9, 10 ], [ 0, 1, 2, 3, 4, 5, 6, 7, 8, 9, 10 ], [ 0, 1, 2, 3, 4, 5, 6, 7, 8, 9, 10 ], [ 0, 1, 2, 3, 4, 5, 6, 7, 8, 9, 10 ], [ 0, 1, 2, 3, 4, 5, 6, 7, 8, 9, 10 ] ], [ [ "asd", "wae", "param", "param", "param", "param", "param", "param", "param", "param" ], [ "param", "param", "param", "param", "param", "param", "param", "param", "param", "param" ], [ "param", "param", "asr", "param", "param", "param", "param", "param", "param", "param" ], [ "param", "param", "param", "param", "param", "param", "param", "param", "param", "param" ], [ "param", "param", "param", "param", "param", "param", "param", "param", "param", "param" ], [ "param", "param", "param", "param", "param", "param", "param", "param", "param", "param" ], [ "param", "param", "param", "param", "param", "param", "param", "param", "param", "param" ], [ "param", "param", "param", "param", "param", "param", "param", "param", "param", "param" ], [ "param", "param", "param", "param", "param", "param", "param", "param", "param", "param" ], [ "param", "param", "param", "param", "param", "param", "param", "param", "param", "param" ], [ "param", "param", "param", "param", "param", "param", "param", "param", "param", "param" ], [ "param", "param", "param", "param", "param", "param", "param", "param", "param", "param" ], [ "param", "param", "param", "param", "param", "param", "param", "param", "param", "param" ], [ "param", "param", "param", "param", "param", "param", "param", "param", "param", "param" ], [ "param", "param", "param", "param", "param", "param", "param", "param", "param", "param" ], [ "param", "param", "param", "param", "param", "param", "param", "param", "param", "param" ], [ "param", "param", "param", "param", "param", "param", "param", "param", "param", "param" ], [ "param", "param", "param", "param", "param", "param", "param", "param", "param", "param" ], [ "param", "param", "param", "param", "param", "param", "param", "param", "param", "param" ], [ "param", "param", "param", "param", "param", "param", "param", "param", "param", "param" ] ] ],
							"modArrays" : [ [ 1, 1, 0, 0, 0, 0, 0, 0, 0, 0, 0, 0, 0, 0, 0, 0, 0, 0, 0, 0 ], [ "Sine", "SawDown", "Sine", "Sine", "Sine", "Sine", "Sine", "Sine", "Sine", "Sine", "Sine", "Sine", "Sine", "Sine", "Sine", "Sine", "Sine", "Sine", "Sine", "Sine" ], [ "melody_scope", "attenuation", "attenuation", "attenuation", "attenuation", "attenuation", "attenuation", "attenuation", "attenuation", "attenuation", "attenuation", "attenuation", "attenuation", "attenuation", "attenuation", "attenuation", "attenuation", "attenuation", "attenuation", "attenuation" ], [ "3", "1", "1", "1", "1", "1", "1", "1", "1", "1", "1", "1", "1", "1", "1", "1", "1", "1", "1", "1" ], [ "1", "6", "1", "1", "1", "1", "1", "1", "1", "1", "1", "1", "1", "1", "1", "1", "1", "1", "1", "1" ], [ "0", "2", "0", "0", "0", "0", "0", "0", "0", "0", "0", "0", "0", "0", "0", "0", "0", "0", "0", "0" ] ]
						}

					}
,
					"id" : "obj-4",
					"maxclass" : "newobj",
					"numinlets" : 2,
					"numoutlets" : 4,
					"outlettype" : [ "dictionary", "", "", "" ],
					"patching_rect" : [ 693.0, 69.0, 159.0, 22.0 ],
					"saved_object_attributes" : 					{
						"embed" : 1,
						"parameter_enable" : 0,
						"parameter_mappable" : 0
					}
,
					"text" : "dict localStorage @embed 1"
				}

			}
, 			{
				"box" : 				{
					"id" : "obj-10",
					"maxclass" : "newobj",
					"numinlets" : 1,
					"numoutlets" : 0,
					"patching_rect" : [ 318.894733190536499, 420.473682403564453, 91.0, 22.0 ],
					"text" : "print @popup 1"
				}

			}
, 			{
				"box" : 				{
					"id" : "obj-6",
					"linecount" : 2,
					"maxclass" : "comment",
					"numinlets" : 1,
					"numoutlets" : 0,
					"patching_rect" : [ 438.52631402015686, 27.5, 150.0, 33.0 ],
					"text" : "required due to the asynchronous operation"
				}

			}
, 			{
				"box" : 				{
					"id" : "obj-3",
					"maxclass" : "newobj",
					"numinlets" : 2,
					"numoutlets" : 1,
					"outlettype" : [ "bang" ],
					"patching_rect" : [ 374.157894849777222, 27.5, 55.0, 22.0 ],
					"text" : "del 1000"
				}

			}
, 			{
				"box" : 				{
					"id" : "obj-45",
					"maxclass" : "comment",
					"numinlets" : 1,
					"numoutlets" : 0,
					"patching_rect" : [ 732.0, 34.0, 150.0, 20.0 ],
					"text" : "Storage for the matrix"
				}

			}
, 			{
				"box" : 				{
					"id" : "obj-20",
					"maxclass" : "newobj",
					"numinlets" : 1,
					"numoutlets" : 1,
					"outlettype" : [ "bang" ],
					"patching_rect" : [ 217.0, 6.0, 58.0, 22.0 ],
					"text" : "loadbang"
				}

			}
, 			{
				"box" : 				{
					"id" : "obj-14",
					"maxclass" : "message",
					"numinlets" : 2,
					"numoutlets" : 1,
					"outlettype" : [ "" ],
					"patching_rect" : [ 594.789473533630371, 65.842105150222778, 39.0, 22.0 ],
					"text" : "dump"
				}

			}
, 			{
				"box" : 				{
					"id" : "obj-12",
					"maxclass" : "message",
					"numinlets" : 2,
					"numoutlets" : 1,
					"outlettype" : [ "" ],
					"patching_rect" : [ 328.894735336303711, 69.0, 104.0, 22.0 ],
					"text" : "save localStorage"
				}

			}
, 			{
				"box" : 				{
					"id" : "obj-18",
					"maxclass" : "message",
					"numinlets" : 2,
					"numoutlets" : 1,
					"outlettype" : [ "" ],
					"patching_rect" : [ 217.0, 69.0, 106.0, 22.0 ],
					"text" : "readfile lfogui.html"
				}

			}
, 			{
				"box" : 				{
					"id" : "obj-2",
					"maxclass" : "jweb",
					"numinlets" : 1,
					"numoutlets" : 1,
					"outlettype" : [ "" ],
					"patching_rect" : [ 319.0, 125.0, 552.0, 245.0 ],
					"rendermode" : 0,
					"url" : "file://lfogui.html"
				}

			}
 ],
		"lines" : [ 			{
				"patchline" : 				{
					"destination" : [ "obj-2", 0 ],
					"source" : [ "obj-12", 0 ]
				}

			}
, 			{
				"patchline" : 				{
					"destination" : [ "obj-2", 0 ],
					"source" : [ "obj-14", 0 ]
				}

			}
, 			{
				"patchline" : 				{
					"destination" : [ "obj-2", 0 ],
					"source" : [ "obj-16", 0 ]
				}

			}
, 			{
				"patchline" : 				{
					"destination" : [ "obj-2", 0 ],
					"source" : [ "obj-18", 0 ]
				}

			}
, 			{
				"patchline" : 				{
					"destination" : [ "obj-10", 0 ],
					"source" : [ "obj-2", 0 ]
				}

			}
, 			{
				"patchline" : 				{
					"destination" : [ "obj-18", 0 ],
					"order" : 1,
					"source" : [ "obj-20", 0 ]
				}

			}
, 			{
				"patchline" : 				{
					"destination" : [ "obj-3", 0 ],
					"order" : 0,
					"source" : [ "obj-20", 0 ]
				}

			}
, 			{
				"patchline" : 				{
					"destination" : [ "obj-16", 0 ],
					"source" : [ "obj-3", 0 ]
				}

			}
 ],
		"dependency_cache" : [  ],
		"autosave" : 0
	}

}
